<svg width="392" height="100" viewBox="0 0 392 100" fill="none" xmlns="http://www.w3.org/2000/svg">
<path d="M103.026 10H22.6154C17.0642 10 12.5641 13.5817 12.5641 18V82C12.5641 86.4183 17.0642 90 22.6154 90H103.026C108.577 90 113.077 86.4183 113.077 82V18C113.077 13.5817 108.577 10 103.026 10Z" fill="white"/>
<path d="M113.077 64H12.5641V66H113.077V64Z" fill="white"/>
<path d="M45.2308 65C45.2308 61.287 47.084 57.726 50.3827 55.1005C53.6814 52.475 58.1554 51 62.8205 51C67.4856 51 71.9596 52.475 75.2583 55.1005C78.5571 57.726 80.4103 61.287 80.4103 65H45.2308Z" fill="white"/>
<path d="M148.67 31.812C149.771 31.812 150.621 31.9333 151.218 32.176C151.815 32.4 152.329 32.6427 152.758 32.904C152.982 33.0347 153.159 33.1373 153.29 33.212C153.439 33.268 153.579 33.296 153.71 33.296C153.897 33.296 154.027 33.1933 154.102 32.988C154.195 32.7827 154.27 32.4747 154.326 32.064H154.97C154.951 32.4187 154.923 32.848 154.886 33.352C154.867 33.8373 154.849 34.4813 154.83 35.284C154.83 36.0867 154.83 37.1413 154.83 38.448H154.186C154.111 37.4773 153.887 36.5347 153.514 35.62C153.141 34.7053 152.609 33.9587 151.918 33.38C151.246 32.7827 150.415 32.484 149.426 32.484C148.53 32.484 147.793 32.736 147.214 33.24C146.635 33.744 146.346 34.444 146.346 35.34C146.346 36.0867 146.533 36.7307 146.906 37.272C147.279 37.7947 147.821 38.308 148.53 38.812C149.258 39.316 150.135 39.9227 151.162 40.632C152.058 41.2107 152.861 41.7893 153.57 42.368C154.279 42.9467 154.849 43.6 155.278 44.328C155.707 45.056 155.922 45.924 155.922 46.932C155.922 48.164 155.595 49.1813 154.942 49.984C154.307 50.7867 153.467 51.3933 152.422 51.804C151.377 52.196 150.229 52.392 148.978 52.392C147.821 52.392 146.897 52.28 146.206 52.056C145.515 51.832 144.937 51.5987 144.47 51.356C144.059 51.0947 143.742 50.964 143.518 50.964C143.331 50.964 143.191 51.0667 143.098 51.272C143.023 51.4773 142.958 51.7853 142.902 52.196H142.258C142.295 51.748 142.314 51.2253 142.314 50.628C142.333 50.0307 142.342 49.256 142.342 48.304C142.361 47.3333 142.37 46.1107 142.37 44.636H143.014C143.089 45.868 143.294 47.0253 143.63 48.108C143.985 49.172 144.517 50.0307 145.226 50.684C145.954 51.3373 146.915 51.664 148.11 51.664C148.763 51.664 149.342 51.552 149.846 51.328C150.369 51.0853 150.789 50.7307 151.106 50.264C151.423 49.7973 151.582 49.2187 151.582 48.528C151.582 47.744 151.395 47.0627 151.022 46.484C150.667 45.9053 150.173 45.364 149.538 44.86C148.922 44.356 148.203 43.8427 147.382 43.32C146.505 42.7413 145.683 42.1627 144.918 41.584C144.153 41.0053 143.537 40.3427 143.07 39.596C142.622 38.8493 142.398 37.9627 142.398 36.936C142.398 35.76 142.687 34.7987 143.266 34.052C143.863 33.2867 144.638 32.7267 145.59 32.372C146.561 31.9987 147.587 31.812 148.67 31.812ZM167.018 32.12L173.822 49.648C174.083 50.32 174.373 50.7867 174.69 51.048C175.026 51.2907 175.325 51.4213 175.586 51.44V52C175.026 51.9627 174.363 51.944 173.598 51.944C172.851 51.9253 172.095 51.916 171.33 51.916C170.471 51.916 169.659 51.9253 168.894 51.944C168.129 51.944 167.522 51.9627 167.074 52V51.44C168.026 51.4027 168.623 51.244 168.866 50.964C169.127 50.6653 169.071 50.04 168.698 49.088L163.938 36.068L164.442 35.34L160.186 46.428C159.775 47.4547 159.523 48.2947 159.43 48.948C159.355 49.6013 159.402 50.1053 159.57 50.46C159.757 50.8147 160.046 51.0667 160.438 51.216C160.849 51.3467 161.334 51.4213 161.894 51.44V52C161.278 51.9627 160.69 51.944 160.13 51.944C159.57 51.9253 159.001 51.916 158.422 51.916C158.011 51.916 157.619 51.9253 157.246 51.944C156.891 51.944 156.574 51.9627 156.294 52V51.44C156.686 51.3653 157.087 51.1133 157.498 50.684C157.909 50.2547 158.31 49.5267 158.702 48.5L165.086 32.12C165.385 32.1387 165.702 32.148 166.038 32.148C166.393 32.148 166.719 32.1387 167.018 32.12ZM168.978 43.936V44.496H160.634L160.914 43.936H168.978ZM184.615 32.176V32.736C183.98 32.7547 183.495 32.8293 183.159 32.96C182.842 33.072 182.627 33.296 182.515 33.632C182.403 33.9493 182.347 34.4533 182.347 35.144V49.368C182.347 49.9467 182.384 50.376 182.459 50.656C182.552 50.936 182.72 51.1227 182.963 51.216C183.224 51.3093 183.607 51.356 184.111 51.356H185.483C186.118 51.356 186.715 51.2067 187.275 50.908C187.835 50.6093 188.339 50.1893 188.787 49.648C189.235 49.088 189.608 48.4253 189.907 47.66C190.206 46.8947 190.43 46.0453 190.579 45.112H191.223C191.167 45.7467 191.139 46.568 191.139 47.576C191.139 48.0053 191.148 48.6307 191.167 49.452C191.186 50.2733 191.242 51.1227 191.335 52C190.383 51.9627 189.31 51.944 188.115 51.944C186.92 51.9253 185.856 51.916 184.923 51.916C184.456 51.916 183.859 51.916 183.131 51.916C182.403 51.916 181.619 51.9253 180.779 51.944C179.939 51.944 179.09 51.9533 178.231 51.972C177.372 51.972 176.56 51.9813 175.795 52V51.44C176.392 51.4027 176.84 51.328 177.139 51.216C177.438 51.104 177.634 50.88 177.727 50.544C177.839 50.208 177.895 49.704 177.895 49.032V35.144C177.895 34.4533 177.839 33.9493 177.727 33.632C177.634 33.296 177.428 33.072 177.111 32.96C176.812 32.8293 176.374 32.7547 175.795 32.736V32.176C176.262 32.1947 176.887 32.2133 177.671 32.232C178.474 32.2507 179.323 32.26 180.219 32.26C181.04 32.26 181.843 32.2507 182.627 32.232C183.43 32.2133 184.092 32.1947 184.615 32.176ZM201.564 32.176V32.736C200.967 32.7547 200.509 32.8293 200.192 32.96C199.893 33.072 199.697 33.296 199.604 33.632C199.511 33.9493 199.464 34.4533 199.464 35.144V49.032C199.464 49.704 199.511 50.208 199.604 50.544C199.716 50.88 199.921 51.104 200.22 51.216C200.519 51.328 200.967 51.4027 201.564 51.44V52C201.06 51.9627 200.425 51.944 199.66 51.944C198.895 51.9253 198.12 51.916 197.336 51.916C196.421 51.916 195.572 51.9253 194.788 51.944C194.023 51.944 193.397 51.9627 192.912 52V51.44C193.509 51.4027 193.957 51.328 194.256 51.216C194.555 51.104 194.751 50.88 194.844 50.544C194.956 50.208 195.012 49.704 195.012 49.032V35.144C195.012 34.4533 194.956 33.9493 194.844 33.632C194.751 33.296 194.545 33.072 194.228 32.96C193.929 32.8293 193.491 32.7547 192.912 32.736V32.176C193.397 32.1947 194.023 32.2133 194.788 32.232C195.572 32.2507 196.421 32.26 197.336 32.26C198.12 32.26 198.895 32.2507 199.66 32.232C200.425 32.2133 201.06 32.1947 201.564 32.176ZM220.463 32.176C220.389 33.128 220.333 34.0427 220.295 34.92C220.277 35.7973 220.267 36.4693 220.267 36.936C220.267 37.3467 220.277 37.7387 220.295 38.112C220.314 38.4853 220.333 38.8027 220.351 39.064H219.707C219.409 37.496 219.026 36.2547 218.559 35.34C218.111 34.4253 217.57 33.7813 216.935 33.408C216.301 33.016 215.554 32.82 214.695 32.82H214.051V48.808C214.051 49.5547 214.126 50.1147 214.275 50.488C214.443 50.8613 214.742 51.1133 215.171 51.244C215.601 51.356 216.226 51.4213 217.047 51.44V52C216.469 51.9813 215.694 51.9627 214.723 51.944C213.771 51.9253 212.773 51.916 211.727 51.916C210.701 51.916 209.73 51.9253 208.815 51.944C207.901 51.9627 207.163 51.9813 206.603 52V51.44C207.443 51.4213 208.078 51.356 208.507 51.244C208.937 51.1133 209.226 50.8613 209.375 50.488C209.525 50.1147 209.599 49.5547 209.599 48.808V32.82H208.983C208.125 32.82 207.378 33.016 206.743 33.408C206.109 33.7813 205.567 34.4253 205.119 35.34C204.671 36.236 204.279 37.4773 203.943 39.064H203.299C203.337 38.8027 203.355 38.4853 203.355 38.112C203.374 37.7387 203.383 37.3467 203.383 36.936C203.383 36.4693 203.365 35.7973 203.327 34.92C203.309 34.0427 203.262 33.128 203.187 32.176C204.046 32.1947 204.979 32.2133 205.987 32.232C207.014 32.2507 208.041 32.26 209.067 32.26C210.094 32.26 211.018 32.26 211.839 32.26C212.679 32.26 213.603 32.26 214.611 32.26C215.638 32.26 216.665 32.2507 217.691 32.232C218.718 32.2133 219.642 32.1947 220.463 32.176ZM222.143 32.176C222.609 32.1947 223.235 32.2133 224.019 32.232C224.821 32.2507 225.615 32.26 226.399 32.26C227.295 32.26 228.163 32.2507 229.003 32.232C229.843 32.2133 230.44 32.204 230.795 32.204C232.531 32.204 233.968 32.4 235.107 32.792C236.264 33.1653 237.123 33.716 237.683 34.444C238.261 35.172 238.551 36.0493 238.551 37.076C238.551 37.7107 238.42 38.3547 238.159 39.008C237.897 39.6427 237.449 40.24 236.815 40.8C236.199 41.3413 235.349 41.78 234.267 42.116C233.184 42.4333 231.821 42.592 230.179 42.592H227.491V42.032H229.899C231 42.032 231.831 41.8267 232.391 41.416C232.969 40.9867 233.361 40.4267 233.567 39.736C233.791 39.0267 233.903 38.2427 233.903 37.384C233.903 35.9093 233.641 34.7707 233.119 33.968C232.596 33.1467 231.7 32.736 230.431 32.736C229.703 32.736 229.227 32.8947 229.003 33.212C228.797 33.5293 228.695 34.1733 228.695 35.144V49.032C228.695 49.704 228.741 50.208 228.835 50.544C228.947 50.88 229.152 51.104 229.451 51.216C229.749 51.328 230.197 51.4027 230.795 51.44V52C230.291 51.9627 229.656 51.944 228.891 51.944C228.125 51.9253 227.351 51.916 226.567 51.916C225.671 51.916 224.821 51.9253 224.019 51.944C223.235 51.944 222.609 51.9627 222.143 52V51.44C222.74 51.4027 223.188 51.328 223.487 51.216C223.785 51.104 223.981 50.88 224.075 50.544C224.187 50.208 224.243 49.704 224.243 49.032V35.144C224.243 34.4533 224.187 33.9493 224.075 33.632C223.981 33.296 223.776 33.072 223.459 32.96C223.16 32.8293 222.721 32.7547 222.143 32.736V32.176ZM227.435 42.116C228.237 42.1347 228.928 42.172 229.507 42.228C230.104 42.284 230.627 42.34 231.075 42.396C231.523 42.4333 231.924 42.4613 232.279 42.48C233.977 42.6293 235.228 42.9933 236.031 43.572C236.852 44.1507 237.384 45.0187 237.627 46.176L238.271 49.06C238.439 49.8067 238.616 50.3293 238.803 50.628C238.989 50.9267 239.26 51.076 239.615 51.076C239.857 51.0573 240.053 51.0013 240.203 50.908C240.371 50.796 240.548 50.6373 240.735 50.432L241.127 50.768C240.623 51.3467 240.081 51.7573 239.503 52C238.924 52.2613 238.224 52.392 237.403 52.392C236.395 52.392 235.564 52.1773 234.911 51.748C234.257 51.3187 233.828 50.5253 233.623 49.368L233.119 46.568C232.988 45.784 232.829 45.1027 232.643 44.524C232.456 43.9267 232.195 43.46 231.859 43.124C231.541 42.7693 231.093 42.592 230.515 42.592H227.491L227.435 42.116ZM256.509 32.176C256.435 32.9973 256.379 33.7907 256.341 34.556C256.323 35.3213 256.313 35.9093 256.313 36.32C256.313 36.6933 256.323 37.048 256.341 37.384C256.36 37.72 256.379 38 256.397 38.224H255.753C255.567 36.8613 255.277 35.788 254.885 35.004C254.493 34.2013 253.98 33.6413 253.345 33.324C252.729 32.988 252.001 32.82 251.161 32.82H250.013C249.472 32.82 249.061 32.8667 248.781 32.96C248.501 33.0533 248.315 33.24 248.221 33.52C248.128 33.8 248.081 34.2293 248.081 34.808V49.368C248.081 49.9467 248.128 50.376 248.221 50.656C248.315 50.936 248.501 51.1227 248.781 51.216C249.061 51.3093 249.472 51.356 250.013 51.356H251.385C252.225 51.356 252.963 51.1787 253.597 50.824C254.251 50.4507 254.801 49.8253 255.249 48.948C255.716 48.0707 256.071 46.8853 256.313 45.392H256.957C256.901 45.9893 256.873 46.7733 256.873 47.744C256.873 48.1733 256.883 48.78 256.901 49.564C256.92 50.348 256.976 51.16 257.069 52C256.117 51.9627 255.044 51.944 253.849 51.944C252.655 51.9253 251.591 51.916 250.657 51.916C250.191 51.916 249.593 51.916 248.865 51.916C248.137 51.916 247.353 51.9253 246.513 51.944C245.673 51.944 244.824 51.9533 243.965 51.972C243.107 51.972 242.295 51.9813 241.529 52V51.44C242.127 51.4027 242.575 51.328 242.873 51.216C243.172 51.104 243.368 50.88 243.461 50.544C243.573 50.208 243.629 49.704 243.629 49.032V35.144C243.629 34.4533 243.573 33.9493 243.461 33.632C243.368 33.296 243.163 33.072 242.845 32.96C242.547 32.8293 242.108 32.7547 241.529 32.736V32.176C242.295 32.1947 243.107 32.2133 243.965 32.232C244.824 32.232 245.673 32.2413 246.513 32.26C247.353 32.26 248.137 32.26 248.865 32.26C249.593 32.26 250.191 32.26 250.657 32.26C251.516 32.26 252.487 32.26 253.569 32.26C254.671 32.2413 255.651 32.2133 256.509 32.176ZM252.141 41.752C252.141 41.752 252.141 41.8453 252.141 42.032C252.141 42.2187 252.141 42.312 252.141 42.312H247.241C247.241 42.312 247.241 42.2187 247.241 42.032C247.241 41.8453 247.241 41.752 247.241 41.752H252.141ZM252.953 38.056C252.879 39.12 252.841 39.932 252.841 40.492C252.86 41.052 252.869 41.5653 252.869 42.032C252.869 42.4987 252.879 43.012 252.897 43.572C252.916 44.132 252.963 44.944 253.037 46.008H252.393C252.3 45.3547 252.123 44.748 251.861 44.188C251.619 43.628 251.264 43.18 250.797 42.844C250.331 42.4893 249.724 42.312 248.977 42.312V41.752C249.537 41.752 250.013 41.64 250.405 41.416C250.797 41.1733 251.115 40.8653 251.357 40.492C251.619 40.1 251.824 39.6893 251.973 39.26C252.123 38.8307 252.235 38.4293 252.309 38.056H252.953Z" fill="white"/>
</svg>
