<svg width="312" height="100" viewBox="0 0 312 100" fill="none" xmlns="http://www.w3.org/2000/svg">
<path d="M82 10H18C13.5817 10 10 13.5817 10 18V82C10 86.4183 13.5817 90 18 90H82C86.4183 90 90 86.4183 90 82V18C90 13.5817 86.4183 10 82 10Z" fill="#2C3539"/>
<path d="M90 64H10V66H90V64Z" fill="#F8F8F5"/>
<path d="M36 65C36 61.287 37.475 57.726 40.1005 55.1005C42.726 52.475 46.287 51 50 51C53.713 51 57.274 52.475 59.8995 55.1005C62.525 57.726 64 61.287 64 65H36Z" fill="#6C8062"/>
<path d="M119.952 31.812C121.053 31.812 121.903 31.9333 122.5 32.176C123.097 32.4 123.611 32.6427 124.04 32.904C124.264 33.0347 124.441 33.1373 124.572 33.212C124.721 33.268 124.861 33.296 124.992 33.296C125.179 33.296 125.309 33.1933 125.384 32.988C125.477 32.7827 125.552 32.4747 125.608 32.064H126.252C126.233 32.4187 126.205 32.848 126.168 33.352C126.149 33.8373 126.131 34.4813 126.112 35.284C126.112 36.0867 126.112 37.1413 126.112 38.448H125.468C125.393 37.4773 125.169 36.5347 124.796 35.62C124.423 34.7053 123.891 33.9587 123.2 33.38C122.528 32.7827 121.697 32.484 120.708 32.484C119.812 32.484 119.075 32.736 118.496 33.24C117.917 33.744 117.628 34.444 117.628 35.34C117.628 36.0867 117.815 36.7307 118.188 37.272C118.561 37.7947 119.103 38.308 119.812 38.812C120.54 39.316 121.417 39.9227 122.444 40.632C123.34 41.2107 124.143 41.7893 124.852 42.368C125.561 42.9467 126.131 43.6 126.56 44.328C126.989 45.056 127.204 45.924 127.204 46.932C127.204 48.164 126.877 49.1813 126.224 49.984C125.589 50.7867 124.749 51.3933 123.704 51.804C122.659 52.196 121.511 52.392 120.26 52.392C119.103 52.392 118.179 52.28 117.488 52.056C116.797 51.832 116.219 51.5987 115.752 51.356C115.341 51.0947 115.024 50.964 114.8 50.964C114.613 50.964 114.473 51.0667 114.38 51.272C114.305 51.4773 114.24 51.7853 114.184 52.196H113.54C113.577 51.748 113.596 51.2253 113.596 50.628C113.615 50.0307 113.624 49.256 113.624 48.304C113.643 47.3333 113.652 46.1107 113.652 44.636H114.296C114.371 45.868 114.576 47.0253 114.912 48.108C115.267 49.172 115.799 50.0307 116.508 50.684C117.236 51.3373 118.197 51.664 119.392 51.664C120.045 51.664 120.624 51.552 121.128 51.328C121.651 51.0853 122.071 50.7307 122.388 50.264C122.705 49.7973 122.864 49.2187 122.864 48.528C122.864 47.744 122.677 47.0627 122.304 46.484C121.949 45.9053 121.455 45.364 120.82 44.86C120.204 44.356 119.485 43.8427 118.664 43.32C117.787 42.7413 116.965 42.1627 116.2 41.584C115.435 41.0053 114.819 40.3427 114.352 39.596C113.904 38.8493 113.68 37.9627 113.68 36.936C113.68 35.76 113.969 34.7987 114.548 34.052C115.145 33.2867 115.92 32.7267 116.872 32.372C117.843 31.9987 118.869 31.812 119.952 31.812ZM138.3 32.12L145.104 49.648C145.365 50.32 145.655 50.7867 145.972 51.048C146.308 51.2907 146.607 51.4213 146.868 51.44V52C146.308 51.9627 145.645 51.944 144.88 51.944C144.133 51.9253 143.377 51.916 142.612 51.916C141.753 51.916 140.941 51.9253 140.176 51.944C139.411 51.944 138.804 51.9627 138.356 52V51.44C139.308 51.4027 139.905 51.244 140.148 50.964C140.409 50.6653 140.353 50.04 139.98 49.088L135.22 36.068L135.724 35.34L131.468 46.428C131.057 47.4547 130.805 48.2947 130.712 48.948C130.637 49.6013 130.684 50.1053 130.852 50.46C131.039 50.8147 131.328 51.0667 131.72 51.216C132.131 51.3467 132.616 51.4213 133.176 51.44V52C132.56 51.9627 131.972 51.944 131.412 51.944C130.852 51.9253 130.283 51.916 129.704 51.916C129.293 51.916 128.901 51.9253 128.528 51.944C128.173 51.944 127.856 51.9627 127.576 52V51.44C127.968 51.3653 128.369 51.1133 128.78 50.684C129.191 50.2547 129.592 49.5267 129.984 48.5L136.368 32.12C136.667 32.1387 136.984 32.148 137.32 32.148C137.675 32.148 138.001 32.1387 138.3 32.12ZM140.26 43.936V44.496H131.916L132.196 43.936H140.26ZM155.897 32.176V32.736C155.262 32.7547 154.777 32.8293 154.441 32.96C154.124 33.072 153.909 33.296 153.797 33.632C153.685 33.9493 153.629 34.4533 153.629 35.144V49.368C153.629 49.9467 153.666 50.376 153.741 50.656C153.834 50.936 154.002 51.1227 154.245 51.216C154.506 51.3093 154.889 51.356 155.393 51.356H156.765C157.4 51.356 157.997 51.2067 158.557 50.908C159.117 50.6093 159.621 50.1893 160.069 49.648C160.517 49.088 160.89 48.4253 161.189 47.66C161.488 46.8947 161.712 46.0453 161.861 45.112H162.505C162.449 45.7467 162.421 46.568 162.421 47.576C162.421 48.0053 162.43 48.6307 162.449 49.452C162.468 50.2733 162.524 51.1227 162.617 52C161.665 51.9627 160.592 51.944 159.397 51.944C158.202 51.9253 157.138 51.916 156.205 51.916C155.738 51.916 155.141 51.916 154.413 51.916C153.685 51.916 152.901 51.9253 152.061 51.944C151.221 51.944 150.372 51.9533 149.513 51.972C148.654 51.972 147.842 51.9813 147.077 52V51.44C147.674 51.4027 148.122 51.328 148.421 51.216C148.72 51.104 148.916 50.88 149.009 50.544C149.121 50.208 149.177 49.704 149.177 49.032V35.144C149.177 34.4533 149.121 33.9493 149.009 33.632C148.916 33.296 148.71 33.072 148.393 32.96C148.094 32.8293 147.656 32.7547 147.077 32.736V32.176C147.544 32.1947 148.169 32.2133 148.953 32.232C149.756 32.2507 150.605 32.26 151.501 32.26C152.322 32.26 153.125 32.2507 153.909 32.232C154.712 32.2133 155.374 32.1947 155.897 32.176ZM172.846 32.176V32.736C172.249 32.7547 171.792 32.8293 171.474 32.96C171.176 33.072 170.98 33.296 170.886 33.632C170.793 33.9493 170.746 34.4533 170.746 35.144V49.032C170.746 49.704 170.793 50.208 170.886 50.544C170.998 50.88 171.204 51.104 171.502 51.216C171.801 51.328 172.249 51.4027 172.846 51.44V52C172.342 51.9627 171.708 51.944 170.942 51.944C170.177 51.9253 169.402 51.916 168.618 51.916C167.704 51.916 166.854 51.9253 166.07 51.944C165.305 51.944 164.68 51.9627 164.194 52V51.44C164.792 51.4027 165.24 51.328 165.538 51.216C165.837 51.104 166.033 50.88 166.126 50.544C166.238 50.208 166.294 49.704 166.294 49.032V35.144C166.294 34.4533 166.238 33.9493 166.126 33.632C166.033 33.296 165.828 33.072 165.51 32.96C165.212 32.8293 164.773 32.7547 164.194 32.736V32.176C164.68 32.1947 165.305 32.2133 166.07 32.232C166.854 32.2507 167.704 32.26 168.618 32.26C169.402 32.26 170.177 32.2507 170.942 32.232C171.708 32.2133 172.342 32.1947 172.846 32.176ZM191.746 32.176C191.671 33.128 191.615 34.0427 191.578 34.92C191.559 35.7973 191.55 36.4693 191.55 36.936C191.55 37.3467 191.559 37.7387 191.578 38.112C191.596 38.4853 191.615 38.8027 191.634 39.064H190.99C190.691 37.496 190.308 36.2547 189.842 35.34C189.394 34.4253 188.852 33.7813 188.218 33.408C187.583 33.016 186.836 32.82 185.978 32.82H185.334V48.808C185.334 49.5547 185.408 50.1147 185.558 50.488C185.726 50.8613 186.024 51.1133 186.454 51.244C186.883 51.356 187.508 51.4213 188.33 51.44V52C187.751 51.9813 186.976 51.9627 186.006 51.944C185.054 51.9253 184.055 51.916 183.01 51.916C181.983 51.916 181.012 51.9253 180.098 51.944C179.183 51.9627 178.446 51.9813 177.886 52V51.44C178.726 51.4213 179.36 51.356 179.79 51.244C180.219 51.1133 180.508 50.8613 180.658 50.488C180.807 50.1147 180.882 49.5547 180.882 48.808V32.82H180.266C179.407 32.82 178.66 33.016 178.026 33.408C177.391 33.7813 176.85 34.4253 176.402 35.34C175.954 36.236 175.562 37.4773 175.226 39.064H174.582C174.619 38.8027 174.638 38.4853 174.638 38.112C174.656 37.7387 174.666 37.3467 174.666 36.936C174.666 36.4693 174.647 35.7973 174.61 34.92C174.591 34.0427 174.544 33.128 174.47 32.176C175.328 32.1947 176.262 32.2133 177.27 32.232C178.296 32.2507 179.323 32.26 180.35 32.26C181.376 32.26 182.3 32.26 183.122 32.26C183.962 32.26 184.886 32.26 185.894 32.26C186.92 32.26 187.947 32.2507 188.974 32.232C190 32.2133 190.924 32.1947 191.746 32.176ZM193.425 32.176C193.891 32.1947 194.517 32.2133 195.301 32.232C196.103 32.2507 196.897 32.26 197.681 32.26C198.577 32.26 199.445 32.2507 200.285 32.232C201.125 32.2133 201.722 32.204 202.077 32.204C203.813 32.204 205.25 32.4 206.389 32.792C207.546 33.1653 208.405 33.716 208.965 34.444C209.543 35.172 209.833 36.0493 209.833 37.076C209.833 37.7107 209.702 38.3547 209.441 39.008C209.179 39.6427 208.731 40.24 208.097 40.8C207.481 41.3413 206.631 41.78 205.549 42.116C204.466 42.4333 203.103 42.592 201.461 42.592H198.773V42.032H201.181C202.282 42.032 203.113 41.8267 203.673 41.416C204.251 40.9867 204.643 40.4267 204.849 39.736C205.073 39.0267 205.185 38.2427 205.185 37.384C205.185 35.9093 204.923 34.7707 204.401 33.968C203.878 33.1467 202.982 32.736 201.713 32.736C200.985 32.736 200.509 32.8947 200.285 33.212C200.079 33.5293 199.977 34.1733 199.977 35.144V49.032C199.977 49.704 200.023 50.208 200.117 50.544C200.229 50.88 200.434 51.104 200.733 51.216C201.031 51.328 201.479 51.4027 202.077 51.44V52C201.573 51.9627 200.938 51.944 200.173 51.944C199.407 51.9253 198.633 51.916 197.849 51.916C196.953 51.916 196.103 51.9253 195.301 51.944C194.517 51.944 193.891 51.9627 193.425 52V51.44C194.022 51.4027 194.47 51.328 194.769 51.216C195.067 51.104 195.263 50.88 195.357 50.544C195.469 50.208 195.525 49.704 195.525 49.032V35.144C195.525 34.4533 195.469 33.9493 195.357 33.632C195.263 33.296 195.058 33.072 194.741 32.96C194.442 32.8293 194.003 32.7547 193.425 32.736V32.176ZM198.717 42.116C199.519 42.1347 200.21 42.172 200.789 42.228C201.386 42.284 201.909 42.34 202.357 42.396C202.805 42.4333 203.206 42.4613 203.561 42.48C205.259 42.6293 206.51 42.9933 207.313 43.572C208.134 44.1507 208.666 45.0187 208.909 46.176L209.553 49.06C209.721 49.8067 209.898 50.3293 210.085 50.628C210.271 50.9267 210.542 51.076 210.897 51.076C211.139 51.0573 211.335 51.0013 211.485 50.908C211.653 50.796 211.83 50.6373 212.017 50.432L212.409 50.768C211.905 51.3467 211.363 51.7573 210.785 52C210.206 52.2613 209.506 52.392 208.685 52.392C207.677 52.392 206.846 52.1773 206.193 51.748C205.539 51.3187 205.11 50.5253 204.905 49.368L204.401 46.568C204.27 45.784 204.111 45.1027 203.925 44.524C203.738 43.9267 203.477 43.46 203.141 43.124C202.823 42.7693 202.375 42.592 201.797 42.592H198.773L198.717 42.116ZM227.791 32.176C227.717 32.9973 227.661 33.7907 227.623 34.556C227.605 35.3213 227.595 35.9093 227.595 36.32C227.595 36.6933 227.605 37.048 227.623 37.384C227.642 37.72 227.661 38 227.679 38.224H227.035C226.849 36.8613 226.559 35.788 226.167 35.004C225.775 34.2013 225.262 33.6413 224.627 33.324C224.011 32.988 223.283 32.82 222.443 32.82H221.295C220.754 32.82 220.343 32.8667 220.063 32.96C219.783 33.0533 219.597 33.24 219.503 33.52C219.41 33.8 219.363 34.2293 219.363 34.808V49.368C219.363 49.9467 219.41 50.376 219.503 50.656C219.597 50.936 219.783 51.1227 220.063 51.216C220.343 51.3093 220.754 51.356 221.295 51.356H222.667C223.507 51.356 224.245 51.1787 224.879 50.824C225.533 50.4507 226.083 49.8253 226.531 48.948C226.998 48.0707 227.353 46.8853 227.595 45.392H228.239C228.183 45.9893 228.155 46.7733 228.155 47.744C228.155 48.1733 228.165 48.78 228.183 49.564C228.202 50.348 228.258 51.16 228.351 52C227.399 51.9627 226.326 51.944 225.131 51.944C223.937 51.9253 222.873 51.916 221.939 51.916C221.473 51.916 220.875 51.916 220.147 51.916C219.419 51.916 218.635 51.9253 217.795 51.944C216.955 51.944 216.106 51.9533 215.247 51.972C214.389 51.972 213.577 51.9813 212.811 52V51.44C213.409 51.4027 213.857 51.328 214.155 51.216C214.454 51.104 214.65 50.88 214.743 50.544C214.855 50.208 214.911 49.704 214.911 49.032V35.144C214.911 34.4533 214.855 33.9493 214.743 33.632C214.65 33.296 214.445 33.072 214.127 32.96C213.829 32.8293 213.39 32.7547 212.811 32.736V32.176C213.577 32.1947 214.389 32.2133 215.247 32.232C216.106 32.232 216.955 32.2413 217.795 32.26C218.635 32.26 219.419 32.26 220.147 32.26C220.875 32.26 221.473 32.26 221.939 32.26C222.798 32.26 223.769 32.26 224.851 32.26C225.953 32.2413 226.933 32.2133 227.791 32.176ZM223.423 41.752C223.423 41.752 223.423 41.8453 223.423 42.032C223.423 42.2187 223.423 42.312 223.423 42.312H218.523C218.523 42.312 218.523 42.2187 218.523 42.032C218.523 41.8453 218.523 41.752 218.523 41.752H223.423ZM224.235 38.056C224.161 39.12 224.123 39.932 224.123 40.492C224.142 41.052 224.151 41.5653 224.151 42.032C224.151 42.4987 224.161 43.012 224.179 43.572C224.198 44.132 224.245 44.944 224.319 46.008H223.675C223.582 45.3547 223.405 44.748 223.143 44.188C222.901 43.628 222.546 43.18 222.079 42.844C221.613 42.4893 221.006 42.312 220.259 42.312V41.752C220.819 41.752 221.295 41.64 221.687 41.416C222.079 41.1733 222.397 40.8653 222.639 40.492C222.901 40.1 223.106 39.6893 223.255 39.26C223.405 38.8307 223.517 38.4293 223.591 38.056H224.235Z" fill="#2C3539"/>
</svg>
